<?xml version="1.0" encoding="UTF-8" standalone="no"?>
<!DOCTYPE svg PUBLIC "-//W3C//DTD SVG 1.1//EN" "http://www.w3.org/Graphics/SVG/1.1/DTD/svg11.dtd">
<svg width="100%" height="100%" viewBox="0 0 3000 2400" version="1.1" xmlns="http://www.w3.org/2000/svg" xmlns:xlink="http://www.w3.org/1999/xlink" xml:space="preserve" xmlns:serif="http://www.serif.com/" style="fill-rule:evenodd;clip-rule:evenodd;stroke-linejoin:round;stroke-miterlimit:2;">
    <g id="Logo_black" transform="matrix(2.15264,0,0,2.15264,-1743.05,-973.704)">
        <g id="lg_n1" transform="matrix(3.34844,0,0,3.34844,-1667.83,-4482.22)">
            <path d="M784.171,1673.78C783.946,1673.78 783.763,1673.59 783.762,1673.37C783.762,1673.14 783.945,1672.96 784.17,1672.96C784.17,1672.96 814.131,1672.35 856.38,1671.68C866.116,1671.53 876.503,1671.38 887.327,1671.25C900.563,1671.09 914.448,1670.94 928.59,1670.84C937.689,1670.78 946.894,1670.75 956.099,1670.75C962.991,1670.74 969.883,1670.76 976.731,1670.8C993.244,1670.89 1009.5,1671.05 1024.87,1671.2C1039.62,1671.35 1053.56,1671.52 1066.14,1671.68C1102.87,1672.15 1128.03,1672.55 1128.03,1672.55C1128.26,1672.55 1128.44,1672.73 1128.44,1672.95C1128.44,1673.18 1128.26,1673.36 1128.04,1673.36C1128.04,1673.36 1102.87,1673.82 1066.14,1674.38C1053.56,1674.57 1039.62,1674.77 1024.88,1674.95C1009.5,1675.14 993.249,1675.34 976.737,1675.47C969.889,1675.52 962.997,1675.56 956.105,1675.58C946.9,1675.59 937.695,1675.58 928.596,1675.54C914.454,1675.48 900.568,1675.36 887.332,1675.24C876.507,1675.14 866.12,1675.01 856.384,1674.88C814.133,1674.31 784.171,1673.78 784.171,1673.78Z"/>
            <g transform="matrix(1.15785,0,0,1.1672,-178.817,-334.884)">
                <path d="M974.715,1641.9C1022.37,1641.9 1058.38,1674.1 1058.38,1721.75C978.64,1721.39 978.992,1721.42 891.81,1721.36C891.81,1673.71 927.064,1641.9 974.715,1641.9ZM974.715,1646.05C930.906,1646.05 898.075,1674.33 896.088,1717.22C977.47,1717.27 979.912,1717.25 1054.1,1717.58C1052.06,1674.66 1018.53,1646.05 974.715,1646.05Z"/>
            </g>
            <path d="M1055.94,1564.64C1056.02,1564.73 1056.12,1564.78 1056.16,1564.72C1056.25,1564.58 1056.16,1564.53 1055.96,1564.52C1055.97,1564.41 1055.94,1564.34 1055.84,1564.37C1055.78,1564.38 1055.79,1564.44 1055.83,1564.51C1055.44,1564.52 1054.83,1564.63 1054.38,1564.69C1052.26,1564.98 1049.52,1565.91 1046.39,1567.19C1029.55,1574.08 1002.61,1591.4 1002.61,1591.4C1002.29,1591.62 1001.85,1591.54 1001.63,1591.22C1001.41,1590.91 1001.48,1590.47 1001.8,1590.25C1001.8,1590.25 1019.68,1576.57 1035.27,1567.4C1041.38,1563.82 1047.16,1560.97 1051.4,1559.72C1054.94,1558.67 1057.69,1558.92 1059.28,1559.9C1060.73,1560.8 1061.65,1562.28 1061.68,1564.57C1061.7,1566.21 1061.13,1568.55 1059.62,1571.63C1057.54,1575.88 1053.64,1581.93 1047.16,1590.01C1043.36,1594.75 1038.63,1600.19 1032.9,1606.44C1026.65,1613.26 1019.18,1621.02 1010.35,1629.85C1003.46,1636.75 995.723,1644.25 987.109,1652.5C986.839,1652.78 986.395,1652.78 986.117,1652.51C985.839,1652.24 985.832,1651.8 986.102,1651.52C994.092,1642.68 1001.21,1634.62 1007.64,1627.3C1015.84,1617.97 1022.8,1609.83 1028.71,1602.77C1034.08,1596.35 1038.53,1590.82 1042.23,1586.1C1048.26,1578.41 1052.17,1572.88 1054.22,1568.92C1054.91,1567.59 1055.4,1566.48 1055.65,1565.55C1055.73,1565.27 1055.88,1564.9 1055.94,1564.64ZM1055.94,1564.64C1055.89,1564.61 1055.86,1564.56 1055.83,1564.51C1055.88,1564.51 1055.92,1564.51 1055.96,1564.52C1055.96,1564.55 1055.95,1564.6 1055.94,1564.64Z"/>
            <path d="M789.659,1523.2C790.639,1524.65 792.31,1526.69 793.916,1528.8C797.695,1533.75 803.632,1540.55 812.074,1549.65C819.646,1557.81 829.218,1567.79 841.084,1579.86C859.837,1598.93 884.234,1623.25 915.677,1653.66C915.961,1653.92 915.976,1654.36 915.712,1654.65C915.448,1654.93 915.003,1654.95 914.72,1654.68C882.154,1625.42 856.731,1602.12 837.403,1583.59C825.122,1571.81 815.284,1561.99 807.564,1553.89C798.799,1544.7 792.751,1537.69 788.897,1532.61C785.986,1528.78 784.292,1525.91 783.547,1523.95C782.826,1522.06 782.854,1520.62 783.167,1519.64C783.684,1518.03 784.836,1516.92 786.842,1516.64C788.378,1516.43 791.027,1516.94 794.448,1518.46C803.764,1522.59 820.862,1533.85 838.607,1546.57C868.622,1568.09 900.602,1593.64 900.602,1593.64C900.91,1593.87 900.97,1594.31 900.736,1594.62C900.502,1594.93 900.061,1594.99 899.753,1594.75C899.753,1594.75 866.633,1570.85 835.955,1550.41C818.175,1538.56 801.265,1527.85 792.062,1524.01C791.279,1523.68 790.41,1523.41 789.659,1523.2ZM788.914,1521.9C789.237,1521.52 789.555,1521.03 789.142,1521.07C788.755,1521.11 788.711,1521.4 788.914,1521.9Z"/>
            <g transform="matrix(1,0,0,1,-3.65414,-1.46837)">
                <circle cx="821.887" cy="1567.97" r="15.522"/>
                <path d="M821.887,1552.45C830.454,1552.45 837.409,1559.4 837.409,1567.97C837.409,1576.54 830.454,1583.49 821.887,1583.49C813.32,1583.49 806.365,1576.54 806.365,1567.97C806.365,1559.4 813.32,1552.45 821.887,1552.45ZM821.887,1553.85C818.176,1554.35 815.186,1556.4 813.06,1559.14C811.184,1561.57 810.476,1564.69 810.872,1567.97C811.152,1570.88 812.879,1573.16 814.93,1574.93C816.785,1576.53 819.252,1577.31 821.887,1577.17C824.488,1577.26 826.881,1576.37 828.693,1574.78C830.677,1573.03 832.376,1570.81 832.637,1567.97C833.051,1564.75 832.413,1561.67 830.592,1559.27C828.5,1556.5 825.583,1554.4 821.887,1553.85Z"/>
            </g>
            <g transform="matrix(0.771276,0,0,0.756613,381.746,354.631)">
                <circle cx="821.887" cy="1567.97" r="15.522"/>
                <path d="M821.887,1552.45C830.454,1552.45 837.409,1559.4 837.409,1567.97C837.409,1576.54 830.454,1583.49 821.887,1583.49C813.32,1583.49 806.365,1576.54 806.365,1567.97C806.365,1559.4 813.32,1552.45 821.887,1552.45ZM821.887,1554.31C818.342,1554.94 815.669,1557.11 813.709,1559.82C812.063,1562.1 811.746,1564.99 812.209,1567.97C812.515,1570.45 814.303,1572.15 816.098,1573.61C817.653,1574.88 819.727,1575.28 821.887,1575.13C823.999,1575.23 825.981,1574.67 827.483,1573.41C829.191,1571.98 830.939,1570.36 831.221,1567.97C831.701,1565.06 831.488,1562.24 829.909,1559.99C827.987,1557.25 825.417,1555 821.887,1554.31Z"/>
            </g>
            <path d="M902.704,1674.33C901.1,1674.47 899.683,1673.28 899.541,1671.68C899.399,1670.08 900.586,1668.66 902.189,1668.52C902.189,1668.52 906.443,1667.89 912.091,1662.01C916.854,1657.05 922.411,1648.68 927.364,1634.41C930.455,1625.51 933.257,1614.38 935.64,1600.46C936.732,1594.08 937.768,1587.13 938.678,1579.54C939.214,1575.07 939.738,1570.4 940.191,1565.49C940.2,1570.43 940.153,1575.14 939.998,1579.64C939.734,1587.34 939.251,1594.38 938.554,1600.86C937.012,1615.18 934.552,1626.64 931.783,1635.84C927.107,1651.38 921.34,1660.58 916.321,1666C908.86,1674.06 902.704,1674.33 902.704,1674.33Z"/>
            <path d="M922.455,1673.5C921.173,1674.47 919.342,1674.22 918.368,1672.94C917.393,1671.66 917.643,1669.83 918.924,1668.85C918.924,1668.85 921.655,1666.6 925.31,1660.42C928.411,1655.18 932.118,1647.31 935.318,1635.72C937.472,1627.92 939.361,1618.49 940.862,1607.12C941.575,1601.71 942.231,1595.9 942.758,1589.6C943.072,1585.85 943.374,1581.95 943.599,1577.85C943.834,1581.95 944.011,1585.87 944.081,1589.65C944.199,1596.02 944.101,1601.91 943.791,1607.39C943.13,1619.07 941.62,1628.79 939.825,1636.84C937.066,1649.23 933.499,1657.73 930.348,1663.33C926.066,1670.95 922.455,1673.5 922.455,1673.5Z"/>
            <g transform="matrix(-1,0,0,1,1899.05,0)">
                <path d="M902.189,1668.52C900.586,1668.66 899.399,1670.08 899.541,1671.68C899.683,1673.28 901.1,1674.47 902.704,1674.33C902.704,1674.33 908.86,1674.06 916.321,1666C921.34,1660.58 927.107,1651.38 931.783,1635.84C934.552,1626.64 937.012,1615.18 938.554,1600.86C939.251,1594.38 939.734,1587.34 939.998,1579.64C940.153,1575.14 940.2,1570.43 940.191,1565.49C939.738,1570.4 939.214,1575.07 938.678,1579.54C937.768,1587.13 936.732,1594.08 935.64,1600.46C933.257,1614.38 930.455,1625.51 927.364,1634.41C922.411,1648.68 916.854,1657.05 912.091,1662.01C906.443,1667.89 902.189,1668.52 902.189,1668.52Z"/>
            </g>
            <g transform="matrix(-1,0,0,1,1899.05,0)">
                <path d="M918.924,1668.85C917.643,1669.83 917.393,1671.66 918.368,1672.94C919.342,1674.22 921.173,1674.47 922.455,1673.5C922.455,1673.5 926.066,1670.95 930.348,1663.33C933.499,1657.73 937.066,1649.23 939.825,1636.84C941.62,1628.79 943.13,1619.07 943.791,1607.39C944.101,1601.91 944.199,1596.02 944.081,1589.65C944.011,1585.87 943.834,1581.95 943.599,1577.85C943.374,1581.95 943.072,1585.85 942.758,1589.6C942.231,1595.9 941.575,1601.71 940.862,1607.12C939.361,1618.49 937.472,1627.92 935.318,1635.72C932.118,1647.31 928.411,1655.18 925.31,1660.42C921.655,1666.6 918.924,1668.85 918.924,1668.85Z"/>
            </g>
            <g transform="matrix(1,0,0,1,-1,0)">
                <path d="M953.352,1671.5C953.352,1673.11 952.045,1674.41 950.435,1674.41C948.825,1674.41 947.518,1673.11 947.518,1671.5C947.518,1671.5 947.461,1665.25 947.527,1655.45C947.558,1650.8 947.639,1645.36 947.735,1639.4C947.965,1624.97 948.284,1607.57 948.651,1591.26C948.819,1583.76 948.992,1576.49 949.205,1569.86C949.8,1551.33 950.435,1537.77 950.435,1537.77C950.435,1537.77 951.07,1551.33 951.665,1569.86C951.878,1576.49 952.051,1583.76 952.219,1591.26C952.585,1607.57 952.904,1624.97 953.135,1639.4C953.23,1645.36 953.312,1650.8 953.343,1655.45C953.409,1665.25 953.352,1671.5 953.352,1671.5Z"/>
            </g>
            <g transform="matrix(0.244207,0,0,0.195567,792.147,1227.34)">
                <path d="M1012.89,1485.05L1013.97,1503C1014.02,1503.95 1014.38,1504.85 1014.99,1505.52C1015.59,1506.2 1016.38,1506.6 1017.23,1506.67L1033.22,1507.87L1017.23,1509.08C1016.38,1509.14 1015.59,1509.55 1014.99,1510.22C1014.38,1510.89 1014.02,1511.79 1013.97,1512.74L1012.89,1530.7L1011.82,1512.74C1011.76,1511.79 1011.4,1510.89 1010.8,1510.22C1010.2,1509.55 1009.4,1509.14 1008.56,1509.08L992.563,1507.87L1008.56,1506.67C1009.4,1506.6 1010.2,1506.2 1010.8,1505.52C1011.4,1504.85 1011.76,1503.95 1011.82,1503L1012.89,1485.05Z"/>
            </g>
            <g transform="matrix(0.244207,0,0,0.195567,823.698,1303.77)">
                <path d="M1012.89,1485.05L1015.81,1501.5C1015.95,1502.26 1016.28,1502.96 1016.77,1503.52C1017.26,1504.07 1017.89,1504.44 1018.57,1504.59L1033.22,1507.87L1018.57,1511.15C1017.89,1511.3 1017.26,1511.68 1016.77,1512.23C1016.28,1512.78 1015.95,1513.48 1015.81,1514.24L1012.89,1530.7L1009.97,1514.24C1009.84,1513.48 1009.5,1512.78 1009.01,1512.23C1008.52,1511.68 1007.9,1511.3 1007.22,1511.15L992.563,1507.87L1007.22,1504.59C1007.9,1504.44 1008.52,1504.07 1009.01,1503.52C1009.5,1502.96 1009.84,1502.26 1009.97,1501.5L1012.89,1485.05Z"/>
            </g>
            <g transform="matrix(0.343926,0,0,0.253705,748.506,1241.6)">
                <path d="M1012.89,1485.05L1015.56,1501.7C1015.69,1502.49 1016.03,1503.22 1016.53,1503.78C1017.04,1504.35 1017.69,1504.73 1018.39,1504.87L1033.22,1507.87L1018.39,1510.87C1017.69,1511.01 1017.04,1511.39 1016.53,1511.96C1016.03,1512.53 1015.69,1513.26 1015.56,1514.05L1012.89,1530.7L1010.22,1514.05C1010.1,1513.26 1009.76,1512.53 1009.25,1511.96C1008.75,1511.39 1008.1,1511.01 1007.39,1510.87L992.563,1507.87L1007.39,1504.87C1008.1,1504.73 1008.75,1504.35 1009.25,1503.78C1009.76,1503.22 1010.1,1502.49 1010.22,1501.7L1012.89,1485.05Z"/>
            </g>
            <g transform="matrix(0.16998,0,0,0.138958,634.851,1417.64)">
                <path d="M1012.89,1485.05L1016.15,1501.24C1016.3,1501.96 1016.63,1502.63 1017.09,1503.15C1017.56,1503.68 1018.15,1504.05 1018.8,1504.21L1033.22,1507.87L1018.8,1511.53C1018.15,1511.7 1017.56,1512.06 1017.09,1512.59C1016.63,1513.11 1016.3,1513.78 1016.15,1514.5L1012.89,1530.7L1009.63,1514.5C1009.49,1513.78 1009.16,1513.11 1008.69,1512.59C1008.22,1512.06 1007.63,1511.7 1006.99,1511.53L992.563,1507.87L1006.99,1504.21C1007.63,1504.05 1008.22,1503.68 1008.69,1503.15C1009.16,1502.63 1009.49,1501.96 1009.63,1501.24L1012.89,1485.05Z"/>
            </g>
            <g transform="matrix(0.343926,0,0,0.253705,706.443,1103.42)">
                <path d="M1012.89,1485.05L1013.34,1498.64C1013.42,1500.93 1014.26,1503.1 1015.71,1504.71C1017.15,1506.33 1019.08,1507.28 1021.12,1507.37L1033.22,1507.87L1021.12,1508.38C1019.08,1508.46 1017.15,1509.41 1015.71,1511.03C1014.26,1512.65 1013.42,1514.82 1013.34,1517.11L1012.89,1530.7L1012.44,1517.11C1012.37,1514.82 1011.52,1512.65 1010.08,1511.03C1008.64,1509.41 1006.71,1508.46 1004.67,1508.38L992.563,1507.87L1004.67,1507.37C1006.71,1507.28 1008.64,1506.33 1010.08,1504.71C1011.52,1503.1 1012.37,1500.93 1012.44,1498.64L1012.89,1485.05Z"/>
            </g>
            <g transform="matrix(0.343926,0,0,0.253705,553.82,1139.59)">
                <path d="M1012.89,1485.05L1013.34,1498.64C1013.42,1500.93 1014.26,1503.1 1015.71,1504.71C1017.15,1506.33 1019.08,1507.28 1021.12,1507.37L1033.22,1507.87L1021.12,1508.38C1019.08,1508.46 1017.15,1509.41 1015.71,1511.03C1014.26,1512.65 1013.42,1514.82 1013.34,1517.11L1012.89,1530.7L1012.44,1517.11C1012.37,1514.82 1011.52,1512.65 1010.08,1511.03C1008.64,1509.41 1006.71,1508.46 1004.67,1508.38L992.563,1507.87L1004.67,1507.37C1006.71,1507.28 1008.64,1506.33 1010.08,1504.71C1011.52,1503.1 1012.37,1500.93 1012.44,1498.64L1012.89,1485.05Z"/>
            </g>
            <g transform="matrix(0.343926,0,0,0.253705,550.706,1162.34)">
                <path d="M1012.89,1485.05L1013.34,1498.64C1013.42,1500.93 1014.26,1503.1 1015.71,1504.71C1017.15,1506.33 1019.08,1507.28 1021.12,1507.37L1033.22,1507.87L1021.12,1508.38C1019.08,1508.46 1017.15,1509.41 1015.71,1511.03C1014.26,1512.65 1013.42,1514.82 1013.34,1517.11L1012.89,1530.7L1012.44,1517.11C1012.37,1514.82 1011.52,1512.65 1010.08,1511.03C1008.64,1509.41 1006.71,1508.46 1004.67,1508.38L992.563,1507.87L1004.67,1507.37C1006.71,1507.28 1008.64,1506.33 1010.08,1504.71C1011.52,1503.1 1012.37,1500.93 1012.44,1498.64L1012.89,1485.05Z"/>
            </g>
            <g transform="matrix(0.514618,0,0,0.39206,311.271,921.3)">
                <path d="M1012.89,1485.05L1013.68,1499.43C1013.79,1501.39 1014.53,1503.25 1015.77,1504.64C1017.01,1506.03 1018.66,1506.87 1020.42,1506.99L1033.22,1507.87L1020.42,1508.75C1018.66,1508.88 1017.01,1509.71 1015.77,1511.1C1014.53,1512.5 1013.79,1514.35 1013.68,1516.32L1012.89,1530.7L1012.11,1516.32C1012,1514.35 1011.26,1512.5 1010.01,1511.1C1008.77,1509.71 1007.12,1508.88 1005.37,1508.75L992.563,1507.87L1005.37,1506.99C1007.12,1506.87 1008.77,1506.03 1010.01,1504.64C1011.26,1503.25 1012,1501.39 1012.11,1499.43L1012.89,1485.05Z"/>
            </g>
        </g>
        <g id="txt">
            <g>
                <g transform="matrix(116.845,0,0,116.845,890.883,1252.25)">
                    <path d="M0.387,0.01C0.267,0.01 0.158,-0.003 0.059,-0.029L0.059,-0.136C0.156,-0.107 0.265,-0.093 0.385,-0.093C0.441,-0.093 0.485,-0.096 0.516,-0.103C0.547,-0.11 0.569,-0.12 0.582,-0.133C0.595,-0.146 0.601,-0.164 0.601,-0.187C0.601,-0.205 0.597,-0.22 0.589,-0.232C0.581,-0.244 0.566,-0.254 0.544,-0.262C0.521,-0.27 0.489,-0.276 0.446,-0.28L0.258,-0.298C0.191,-0.304 0.14,-0.322 0.105,-0.351C0.07,-0.38 0.053,-0.423 0.053,-0.478C0.053,-0.543 0.077,-0.591 0.124,-0.623C0.171,-0.654 0.252,-0.67 0.366,-0.67L0.4,-0.67C0.461,-0.67 0.517,-0.665 0.569,-0.655C0.621,-0.645 0.665,-0.63 0.701,-0.611L0.67,-0.515C0.632,-0.535 0.592,-0.549 0.55,-0.557C0.508,-0.564 0.458,-0.568 0.401,-0.568L0.373,-0.568C0.318,-0.568 0.276,-0.565 0.247,-0.56C0.217,-0.554 0.196,-0.545 0.184,-0.532C0.172,-0.519 0.166,-0.501 0.166,-0.478C0.166,-0.453 0.175,-0.434 0.195,-0.423C0.214,-0.412 0.247,-0.404 0.295,-0.4L0.489,-0.381C0.57,-0.374 0.628,-0.355 0.664,-0.324C0.699,-0.293 0.716,-0.249 0.716,-0.191C0.716,-0.145 0.706,-0.108 0.686,-0.079C0.666,-0.05 0.632,-0.028 0.584,-0.013C0.536,0.003 0.47,0.01 0.387,0.01Z" style="fill-rule:nonzero;"/>
                </g>
                <g transform="matrix(116.845,0,0,116.845,973.842,1252.25)">
                    <path d="M0.347,-0.49C0.347,-0.513 0.342,-0.53 0.331,-0.541C0.32,-0.552 0.302,-0.557 0.279,-0.557L0.048,-0.557L0.048,-0.66L0.758,-0.66L0.758,-0.557L0.442,-0.557C0.449,-0.544 0.453,-0.531 0.456,-0.52C0.459,-0.509 0.46,-0.496 0.46,-0.481L0.46,-0L0.347,-0L0.347,-0.49Z" style="fill-rule:nonzero;"/>
                </g>
                <g transform="matrix(116.845,0,0,116.845,1064.75,1252.25)">
                    <path d="M0.427,0.01C0.309,0.01 0.22,-0.012 0.16,-0.056C0.1,-0.1 0.07,-0.166 0.07,-0.253L0.07,-0.66L0.183,-0.66L0.183,-0.253C0.183,-0.148 0.264,-0.095 0.427,-0.095C0.509,-0.095 0.57,-0.109 0.611,-0.136C0.651,-0.163 0.671,-0.202 0.671,-0.253L0.671,-0.66L0.784,-0.66L0.784,-0.253C0.784,-0.078 0.665,0.01 0.427,0.01Z" style="fill-rule:nonzero;"/>
                </g>
                <g transform="matrix(116.845,0,0,116.845,1161.38,1252.25)">
                    <path d="M0.075,-0.66L0.496,-0.66C0.605,-0.66 0.687,-0.634 0.741,-0.582C0.795,-0.53 0.822,-0.454 0.822,-0.355L0.822,-0.306C0.822,-0.207 0.795,-0.131 0.74,-0.079C0.685,-0.026 0.603,-0 0.496,-0L0.075,-0L0.075,-0.66ZM0.483,-0.104C0.56,-0.104 0.617,-0.121 0.654,-0.155C0.69,-0.188 0.708,-0.238 0.708,-0.304L0.708,-0.356C0.708,-0.422 0.69,-0.472 0.653,-0.506C0.616,-0.54 0.56,-0.557 0.483,-0.557L0.188,-0.557L0.188,-0.104L0.483,-0.104Z" style="fill-rule:nonzero;"/>
                </g>
                <g transform="matrix(116.845,0,0,116.845,1260.81,1252.25)">
                    <path d="M0.075,-0.66L0.702,-0.66L0.702,-0.558L0.186,-0.558L0.186,-0.388L0.659,-0.388L0.659,-0.289L0.186,-0.289L0.186,-0.102L0.708,-0.102L0.708,-0L0.075,-0L0.075,-0.66Z" style="fill-rule:nonzero;"/>
                </g>
                <g transform="matrix(116.845,0,0,116.845,1348.56,1252.25)">
                    <path d="M0.075,-0.66L0.189,-0.66L0.536,-0.331C0.599,-0.272 0.642,-0.221 0.666,-0.178L0.666,-0.66L0.777,-0.66L0.777,-0L0.663,-0C0.648,-0.034 0.629,-0.066 0.606,-0.097C0.582,-0.127 0.544,-0.167 0.492,-0.217L0.186,-0.511L0.186,-0L0.075,-0L0.075,-0.66Z" style="fill-rule:nonzero;"/>
                </g>
                <g transform="matrix(116.845,0,0,116.845,1444.96,1252.25)">
                    <path d="M0.347,-0.49C0.347,-0.513 0.342,-0.53 0.331,-0.541C0.32,-0.552 0.302,-0.557 0.279,-0.557L0.048,-0.557L0.048,-0.66L0.758,-0.66L0.758,-0.557L0.442,-0.557C0.449,-0.544 0.453,-0.531 0.456,-0.52C0.459,-0.509 0.46,-0.496 0.46,-0.481L0.46,-0L0.347,-0L0.347,-0.49Z" style="fill-rule:nonzero;"/>
                </g>
                <g transform="matrix(116.845,0,0,116.845,1535.87,1252.25)">
                    <path d="M0.086,-0.688L0.209,-0.688L0.126,-0.459L0.026,-0.459L0.086,-0.688Z" style="fill-rule:nonzero;"/>
                </g>
                <g transform="matrix(116.845,0,0,116.845,1557.83,1252.25)">
                    <path d="M0.387,0.01C0.267,0.01 0.158,-0.003 0.059,-0.029L0.059,-0.136C0.156,-0.107 0.265,-0.093 0.385,-0.093C0.441,-0.093 0.485,-0.096 0.516,-0.103C0.547,-0.11 0.569,-0.12 0.582,-0.133C0.595,-0.146 0.601,-0.164 0.601,-0.187C0.601,-0.205 0.597,-0.22 0.589,-0.232C0.581,-0.244 0.566,-0.254 0.544,-0.262C0.521,-0.27 0.489,-0.276 0.446,-0.28L0.258,-0.298C0.191,-0.304 0.14,-0.322 0.105,-0.351C0.07,-0.38 0.053,-0.423 0.053,-0.478C0.053,-0.543 0.077,-0.591 0.124,-0.623C0.171,-0.654 0.252,-0.67 0.366,-0.67L0.4,-0.67C0.461,-0.67 0.517,-0.665 0.569,-0.655C0.621,-0.645 0.665,-0.63 0.701,-0.611L0.67,-0.515C0.632,-0.535 0.592,-0.549 0.55,-0.557C0.508,-0.564 0.458,-0.568 0.401,-0.568L0.373,-0.568C0.318,-0.568 0.276,-0.565 0.247,-0.56C0.217,-0.554 0.196,-0.545 0.184,-0.532C0.172,-0.519 0.166,-0.501 0.166,-0.478C0.166,-0.453 0.175,-0.434 0.195,-0.423C0.214,-0.412 0.247,-0.404 0.295,-0.4L0.489,-0.381C0.57,-0.374 0.628,-0.355 0.664,-0.324C0.699,-0.293 0.716,-0.249 0.716,-0.191C0.716,-0.145 0.706,-0.108 0.686,-0.079C0.666,-0.05 0.632,-0.028 0.584,-0.013C0.536,0.003 0.47,0.01 0.387,0.01Z" style="fill-rule:nonzero;"/>
                </g>
                <g transform="matrix(116.845,0,0,116.845,1666.26,1252.25)">
                    <path d="M0.387,0.01C0.267,0.01 0.158,-0.003 0.059,-0.029L0.059,-0.136C0.156,-0.107 0.265,-0.093 0.385,-0.093C0.441,-0.093 0.485,-0.096 0.516,-0.103C0.547,-0.11 0.569,-0.12 0.582,-0.133C0.595,-0.146 0.601,-0.164 0.601,-0.187C0.601,-0.205 0.597,-0.22 0.589,-0.232C0.581,-0.244 0.566,-0.254 0.544,-0.262C0.521,-0.27 0.489,-0.276 0.446,-0.28L0.258,-0.298C0.191,-0.304 0.14,-0.322 0.105,-0.351C0.07,-0.38 0.053,-0.423 0.053,-0.478C0.053,-0.543 0.077,-0.591 0.124,-0.623C0.171,-0.654 0.252,-0.67 0.366,-0.67L0.4,-0.67C0.461,-0.67 0.517,-0.665 0.569,-0.655C0.621,-0.645 0.665,-0.63 0.701,-0.611L0.67,-0.515C0.632,-0.535 0.592,-0.549 0.55,-0.557C0.508,-0.564 0.458,-0.568 0.401,-0.568L0.373,-0.568C0.318,-0.568 0.276,-0.565 0.247,-0.56C0.217,-0.554 0.196,-0.545 0.184,-0.532C0.172,-0.519 0.166,-0.501 0.166,-0.478C0.166,-0.453 0.175,-0.434 0.195,-0.423C0.214,-0.412 0.247,-0.404 0.295,-0.4L0.489,-0.381C0.57,-0.374 0.628,-0.355 0.664,-0.324C0.699,-0.293 0.716,-0.249 0.716,-0.191C0.716,-0.145 0.706,-0.108 0.686,-0.079C0.666,-0.05 0.632,-0.028 0.584,-0.013C0.536,0.003 0.47,0.01 0.387,0.01Z" style="fill-rule:nonzero;"/>
                </g>
                <g transform="matrix(116.845,0,0,116.845,1752.85,1252.25)">
                    <path d="M0.075,-0.66L0.458,-0.66C0.551,-0.66 0.62,-0.643 0.663,-0.609C0.706,-0.574 0.728,-0.522 0.728,-0.453L0.728,-0.414C0.728,-0.345 0.706,-0.292 0.663,-0.257C0.619,-0.222 0.551,-0.204 0.458,-0.204L0.187,-0.204L0.187,-0L0.075,-0L0.075,-0.66ZM0.452,-0.306C0.511,-0.306 0.553,-0.314 0.578,-0.331C0.603,-0.347 0.615,-0.375 0.615,-0.414L0.615,-0.45C0.615,-0.487 0.603,-0.515 0.578,-0.532C0.553,-0.549 0.511,-0.558 0.452,-0.558L0.187,-0.558L0.187,-0.306L0.452,-0.306Z" style="fill-rule:nonzero;"/>
                </g>
                <g transform="matrix(116.845,0,0,116.845,1829.73,1252.25)">
                    <path d="M0.328,-0.66L0.526,-0.66L0.834,-0L0.711,-0L0.651,-0.13L0.202,-0.13L0.141,-0L0.018,-0L0.328,-0.66ZM0.605,-0.23L0.451,-0.56L0.4,-0.56L0.247,-0.23L0.605,-0.23Z" style="fill-rule:nonzero;"/>
                </g>
                <g transform="matrix(116.845,0,0,116.845,1923.09,1252.25)">
                    <path d="M0.452,0.01C0.358,0.01 0.282,-0.001 0.224,-0.023C0.166,-0.044 0.124,-0.078 0.097,-0.123C0.07,-0.168 0.056,-0.227 0.056,-0.3L0.056,-0.36C0.056,-0.432 0.07,-0.491 0.097,-0.536C0.124,-0.581 0.166,-0.615 0.224,-0.637C0.282,-0.659 0.358,-0.67 0.452,-0.67L0.484,-0.67C0.607,-0.67 0.704,-0.651 0.777,-0.613L0.747,-0.513C0.708,-0.533 0.669,-0.547 0.63,-0.555C0.59,-0.562 0.542,-0.566 0.485,-0.566L0.455,-0.566C0.384,-0.566 0.329,-0.559 0.288,-0.546C0.247,-0.533 0.217,-0.511 0.198,-0.481C0.179,-0.451 0.17,-0.41 0.17,-0.357L0.17,-0.304C0.17,-0.251 0.18,-0.209 0.2,-0.179C0.219,-0.148 0.249,-0.127 0.291,-0.114C0.331,-0.1 0.386,-0.094 0.455,-0.094L0.485,-0.094C0.584,-0.094 0.681,-0.109 0.774,-0.138L0.774,-0.03C0.73,-0.017 0.682,-0.007 0.631,-0C0.579,0.007 0.529,0.01 0.482,0.01L0.452,0.01Z" style="fill-rule:nonzero;"/>
                </g>
                <g transform="matrix(116.845,0,0,116.845,2016.1,1252.25)">
                    <path d="M0.075,-0.66L0.702,-0.66L0.702,-0.558L0.186,-0.558L0.186,-0.388L0.659,-0.388L0.659,-0.289L0.186,-0.289L0.186,-0.102L0.708,-0.102L0.708,-0L0.075,-0L0.075,-0.66Z" style="fill-rule:nonzero;"/>
                </g>
                <g transform="matrix(270.833,0,0,270.833,899.428,1468.92)">
                    <path d="M0.387,0.01C0.267,0.01 0.158,-0.003 0.059,-0.029L0.059,-0.136C0.156,-0.107 0.265,-0.093 0.385,-0.093C0.441,-0.093 0.485,-0.096 0.516,-0.103C0.547,-0.11 0.569,-0.12 0.582,-0.133C0.595,-0.146 0.601,-0.164 0.601,-0.187C0.601,-0.205 0.597,-0.22 0.589,-0.232C0.581,-0.244 0.566,-0.254 0.544,-0.262C0.521,-0.27 0.489,-0.276 0.446,-0.28L0.258,-0.298C0.191,-0.304 0.14,-0.322 0.105,-0.351C0.07,-0.38 0.053,-0.423 0.053,-0.478C0.053,-0.543 0.077,-0.591 0.124,-0.623C0.171,-0.654 0.252,-0.67 0.366,-0.67L0.4,-0.67C0.461,-0.67 0.517,-0.665 0.569,-0.655C0.621,-0.645 0.665,-0.63 0.701,-0.611L0.67,-0.515C0.632,-0.535 0.592,-0.549 0.55,-0.557C0.508,-0.564 0.458,-0.568 0.401,-0.568L0.373,-0.568C0.318,-0.568 0.276,-0.565 0.247,-0.56C0.217,-0.554 0.196,-0.545 0.184,-0.532C0.172,-0.519 0.166,-0.501 0.166,-0.478C0.166,-0.453 0.175,-0.434 0.195,-0.423C0.214,-0.412 0.247,-0.404 0.295,-0.4L0.489,-0.381C0.57,-0.374 0.628,-0.355 0.664,-0.324C0.699,-0.293 0.716,-0.249 0.716,-0.191C0.716,-0.145 0.706,-0.108 0.686,-0.079C0.666,-0.05 0.632,-0.028 0.584,-0.013C0.536,0.003 0.47,0.01 0.387,0.01Z" style="fill-rule:nonzero;"/>
                </g>
                <g transform="matrix(270.833,0,0,270.833,1100.12,1468.92)">
                    <path d="M0.427,0.01C0.309,0.01 0.22,-0.012 0.16,-0.056C0.1,-0.1 0.07,-0.166 0.07,-0.253L0.07,-0.66L0.183,-0.66L0.183,-0.253C0.183,-0.148 0.264,-0.095 0.427,-0.095C0.509,-0.095 0.57,-0.109 0.611,-0.136C0.651,-0.163 0.671,-0.202 0.671,-0.253L0.671,-0.66L0.784,-0.66L0.784,-0.253C0.784,-0.078 0.665,0.01 0.427,0.01Z" style="fill-rule:nonzero;"/>
                </g>
                <g transform="matrix(270.833,0,0,270.833,1324.09,1468.92)">
                    <path d="M0.075,-0.66L0.195,-0.66L0.375,-0.461C0.433,-0.397 0.474,-0.331 0.498,-0.263C0.513,-0.3 0.529,-0.333 0.547,-0.361C0.565,-0.389 0.59,-0.422 0.623,-0.46L0.796,-0.66L0.917,-0.66L0.917,-0L0.805,-0L0.805,-0.509L0.691,-0.377C0.628,-0.305 0.584,-0.226 0.557,-0.141L0.439,-0.141C0.426,-0.184 0.407,-0.226 0.383,-0.269C0.359,-0.312 0.333,-0.349 0.304,-0.38L0.187,-0.509L0.187,-0L0.075,-0L0.075,-0.66Z" style="fill-rule:nonzero;"/>
                </g>
                <g transform="matrix(270.833,0,0,270.833,1585.45,1468.92)">
                    <path d="M0.075,-0.66L0.195,-0.66L0.375,-0.461C0.433,-0.397 0.474,-0.331 0.498,-0.263C0.513,-0.3 0.529,-0.333 0.547,-0.361C0.565,-0.389 0.59,-0.422 0.623,-0.46L0.796,-0.66L0.917,-0.66L0.917,-0L0.805,-0L0.805,-0.509L0.691,-0.377C0.628,-0.305 0.584,-0.226 0.557,-0.141L0.439,-0.141C0.426,-0.184 0.407,-0.226 0.383,-0.269C0.359,-0.312 0.333,-0.349 0.304,-0.38L0.187,-0.509L0.187,-0L0.075,-0L0.075,-0.66Z" style="fill-rule:nonzero;"/>
                </g>
                <g transform="matrix(270.833,0,0,270.833,1846.8,1468.92)">
                    <rect x="0.075" y="-0.66" width="0.113" height="0.66" style="fill-rule:nonzero;"/>
                </g>
                <g transform="matrix(270.833,0,0,270.833,1910.72,1468.92)">
                    <path d="M0.347,-0.49C0.347,-0.513 0.342,-0.53 0.331,-0.541C0.32,-0.552 0.302,-0.557 0.279,-0.557L0.048,-0.557L0.048,-0.66L0.758,-0.66L0.758,-0.557L0.442,-0.557C0.449,-0.544 0.453,-0.531 0.456,-0.52C0.459,-0.509 0.46,-0.496 0.46,-0.481L0.46,-0L0.347,-0L0.347,-0.49Z" style="fill-rule:nonzero;"/>
                </g>
            </g>
            <g id="base">
                <g transform="matrix(1,0,0,1,284.236,-92.101)">
                    <g transform="matrix(83.3333,0,0,83.3333,1116.03,1636.76)">
                        <path d="M0.059,-0.095L0.397,-0.308C0.434,-0.331 0.463,-0.351 0.483,-0.368C0.503,-0.385 0.517,-0.4 0.525,-0.415C0.533,-0.43 0.537,-0.446 0.537,-0.464C0.537,-0.5 0.522,-0.526 0.492,-0.542C0.461,-0.558 0.411,-0.566 0.341,-0.566C0.238,-0.566 0.154,-0.549 0.089,-0.514L0.056,-0.608C0.089,-0.627 0.131,-0.643 0.181,-0.654C0.231,-0.665 0.285,-0.67 0.344,-0.67C0.457,-0.67 0.536,-0.653 0.582,-0.618C0.627,-0.583 0.65,-0.532 0.65,-0.466C0.65,-0.429 0.644,-0.398 0.632,-0.373C0.619,-0.348 0.6,-0.324 0.573,-0.302C0.546,-0.28 0.507,-0.253 0.455,-0.222L0.264,-0.102L0.66,-0.102L0.66,-0L0.059,-0L0.059,-0.095Z" style="fill-rule:nonzero;"/>
                    </g>
                    <g transform="matrix(83.3333,0,0,83.3333,1173.11,1636.76)">
                        <path d="M0.361,0.01C0.258,0.01 0.182,-0.013 0.132,-0.059C0.081,-0.105 0.056,-0.179 0.056,-0.281L0.056,-0.379C0.056,-0.48 0.082,-0.554 0.133,-0.601C0.184,-0.647 0.26,-0.67 0.361,-0.67L0.425,-0.67C0.53,-0.67 0.608,-0.647 0.66,-0.601C0.711,-0.555 0.736,-0.481 0.736,-0.379L0.736,-0.281C0.736,-0.179 0.711,-0.105 0.66,-0.059C0.608,-0.013 0.53,0.01 0.425,0.01L0.361,0.01ZM0.169,-0.281C0.169,-0.232 0.176,-0.194 0.19,-0.167C0.203,-0.14 0.224,-0.121 0.252,-0.11C0.279,-0.098 0.315,-0.093 0.36,-0.093L0.426,-0.093C0.473,-0.093 0.511,-0.098 0.539,-0.11C0.567,-0.121 0.588,-0.139 0.602,-0.167C0.616,-0.194 0.623,-0.232 0.623,-0.281L0.623,-0.379C0.623,-0.428 0.616,-0.466 0.602,-0.494C0.588,-0.521 0.567,-0.539 0.539,-0.55C0.511,-0.561 0.473,-0.566 0.426,-0.566L0.36,-0.566C0.315,-0.566 0.279,-0.561 0.252,-0.55C0.224,-0.539 0.203,-0.52 0.19,-0.493C0.176,-0.466 0.169,-0.428 0.169,-0.379L0.169,-0.281Z" style="fill-rule:nonzero;"/>
                    </g>
                    <g transform="matrix(83.3333,0,0,83.3333,1234.86,1636.76)">
                        <path d="M0.059,-0.095L0.397,-0.308C0.434,-0.331 0.463,-0.351 0.483,-0.368C0.503,-0.385 0.517,-0.4 0.525,-0.415C0.533,-0.43 0.537,-0.446 0.537,-0.464C0.537,-0.5 0.522,-0.526 0.492,-0.542C0.461,-0.558 0.411,-0.566 0.341,-0.566C0.238,-0.566 0.154,-0.549 0.089,-0.514L0.056,-0.608C0.089,-0.627 0.131,-0.643 0.181,-0.654C0.231,-0.665 0.285,-0.67 0.344,-0.67C0.457,-0.67 0.536,-0.653 0.582,-0.618C0.627,-0.583 0.65,-0.532 0.65,-0.466C0.65,-0.429 0.644,-0.398 0.632,-0.373C0.619,-0.348 0.6,-0.324 0.573,-0.302C0.546,-0.28 0.507,-0.253 0.455,-0.222L0.264,-0.102L0.66,-0.102L0.66,-0L0.059,-0L0.059,-0.095Z" style="fill-rule:nonzero;"/>
                    </g>
                    <g transform="matrix(83.3333,0,0,83.3333,1291.03,1636.76)">
                        <path d="M0.506,-0.125L0.043,-0.125L0.043,-0.222L0.418,-0.66L0.619,-0.66L0.619,-0.224L0.737,-0.224L0.737,-0.125L0.619,-0.125L0.619,-0L0.506,-0L0.506,-0.125ZM0.506,-0.224L0.506,-0.576L0.482,-0.576L0.177,-0.224L0.506,-0.224Z" style="fill-rule:nonzero;"/>
                    </g>
                </g>
                <g transform="matrix(1,0,0,1,-2.66998,0.0458179)">
                    <path d="M1684.7,1487.27C1671.27,1487.31 1660.39,1498.15 1660.29,1511.58C1660.19,1525.21 1660.09,1539.52 1660.09,1539.52C1677.3,1510.5 1631.81,1497.88 2049.45,1487.38C2049.57,1487.38 2049.67,1487.27 2049.67,1487.15C2049.67,1487.02 2049.57,1486.92 2049.44,1486.92C1909.31,1486.7 1745.43,1487.1 1684.7,1487.27Z"/>
                </g>
                <g transform="matrix(-1,0,0,1,3044.08,0)">
                    <path d="M1684.7,1487.27C1671.27,1487.31 1660.39,1498.15 1660.29,1511.58C1660.19,1525.21 1660.09,1539.52 1660.09,1539.52C1677.29,1510.51 1631.85,1497.9 2048.88,1487.39C2049,1487.39 2049.11,1487.28 2049.11,1487.15C2049.11,1487.03 2049,1486.92 2048.87,1486.92C1908.87,1486.7 1745.34,1487.1 1684.7,1487.27Z"/>
                </g>
            </g>
        </g>
    </g>
</svg>
